# xmcd CD database file
#
# Track frame offsets:
#	150
#	33904
#	53901
#	88833
#	107239
#	131615
#	160979
#	185729
#	202491
#	226761
#	253331
#	271053
#
# Disc length: 3865 seconds
#
# Revision: 0
# Processed by: cddbd v1.5.2PL0 Copyright (c) Steve Scherf et al.
# Submitted via: CDex 1.51
#
DISCID=b00f170c
DTITLE=Till Brönner - Midnight
DYEAR=1997
DGENRE=Jazz
TTITLE0=What's Going On
TTITLE1=Midnight
TTITLE2=Little Giant's talking
TTITLE3=Highway To Heaven
TTITLE4=Reporting From Rangoon
TTITLE5=Don't You Worry 'Bout A Thing
TTITLE6=In The Meantime
TTITLE7=Chech That
TTITLE8=Tribeca
TTITLE9=Racer
TTITLE10=Morning Ride
TTITLE11=Waiting
EXTD=YEAR: 1997
EXTT0=
EXTT1=
EXTT2=
EXTT3=
EXTT4=
EXTT5=
EXTT6=
EXTT7=
EXTT8=
EXTT9=
EXTT10=
EXTT11=
PLAYORDER=
